<svg xmlns="http://www.w3.org/2000/svg" version="1.1" xmlns:xlink="http://www.w3.org/1999/xlink" xmlns:svgjs="http://svgjs.dev/svgjs" width="1440" height="560" preserveAspectRatio="none" viewBox="0 0 1440 560"><g mask="url(&quot;#SvgjsMask1025&quot;)" fill="none"><rect width="1440" height="560" x="0" y="0" fill="rgba(71, 14, 25, 1)"></rect><path d="M 0,186 C 144,159.6 432,64.8 720,54 C 1008,43.2 1296,116.4 1440,132L1440 560L0 560z" fill="rgba(109, 19, 23, 1)"></path><path d="M 0,369 C 48,343.4 144,251.6 240,241 C 336,230.4 384,322.8 480,316 C 576,309.2 624,205.2 720,207 C 816,208.8 864,312.6 960,325 C 1056,337.4 1104,262.2 1200,269 C 1296,275.8 1392,341 1440,359L1440 560L0 560z" fill="rgba(126, 24, 45, 1)"></path><path d="M 0,500 C 57.6,492.8 172.8,454.2 288,464 C 403.2,473.8 460.8,553.8 576,549 C 691.2,544.2 748.8,453.8 864,440 C 979.2,426.2 1036.8,482.2 1152,480 C 1267.2,477.8 1382.4,439.2 1440,429L1440 560L0 560z" fill="rgba(151, 20, 49, 1)"></path></g><defs><mask id="SvgjsMask1025"><rect width="1440" height="560" fill="#ffffff"></rect></mask></defs></svg>